<?xml version="1.0" encoding="utf-8"?>
<!-- Generator: Adobe Illustrator 27.0.0, SVG Export Plug-In . SVG Version: 6.00 Build 0)  -->
<svg version="1.1" id="Calque_1" xmlns="http://www.w3.org/2000/svg" xmlns:xlink="http://www.w3.org/1999/xlink" x="0px" y="0px"
	 viewBox="0 0 148 148" style="enable-background:new 0 0 148 148;" xml:space="preserve">
<style type="text/css">
	.st0{fill:url(#SVGID_1_);}
</style>
<g>
	<g>
		<linearGradient id="SVGID_1_" gradientUnits="userSpaceOnUse" x1="-8.970203e-02" y1="59.6034" x2="146.5357" y2="59.6034">
			<stop  offset="0" style="stop-color:#3F39B1"/>
			<stop  offset="0.2741" style="stop-color:#622E88"/>
			<stop  offset="0.8881" style="stop-color:#B91221"/>
			<stop  offset="1" style="stop-color:#C90D0D"/>
		</linearGradient>
		<path class="st0" d="M134.9,26H67.7v29.2C65.5,38.7,51.4,26,34.4,26c-18.6,0-33.6,15-33.6,33.6c0,18.6,15,33.6,33.6,33.6
			c17.5,0,31.9-13.4,33.4-30.5c1.6,17.1,15.9,30.5,33.4,30.5h0c18.6,0,33.6-15,33.6-33.6v33.6h12.6V26H134.9z"/>
	</g>
	<g>
		<path d="M28.8,98.5c0-0.2-0.1-0.4-0.3-0.7c-0.2-0.3-0.5-0.5-0.8-0.6c-0.2-0.1-0.7-0.1-1.2-0.2c-1.7-0.2-3.7-0.1-5.7,0.1
			c-3.5,0.3-6.2,0.6-7.9,0.7C11.1,97.9,9.2,98,7,98c-2.4,0-3,0.1-3.3,0.2c-0.5,0.2-0.7,0.5-0.7,1c0,0.3,0.1,0.6,0.3,0.8l0.1,0.1
			c0.4,0.3,1.3,0.5,2.5,0.5c0.8,0,2.1-0.1,3.9-0.2c1.8-0.1,3.1-0.2,3.7-0.2c0.2,0,0.3,0,0.3,0c0,0,0,0.2,0,0.4
			c-0.5,4.9-0.6,8.3-0.5,10c0.2,2.5,0.7,3.2,1,3.5c0.5,0.5,1.1,0.7,1.7,0.7c0.5,0,0.9-0.2,1.2-0.5c0.3-0.3,0.4-0.7,0.4-1.2
			c0-0.1,0-0.1-0.1-0.4c-0.3-0.8-0.5-1.5-0.6-2.1c-0.1-1.3-0.1-3.4,0-6.2c0.2-3.6,0.4-4.3,0.4-4.4c0,0,0.3-0.3,2.3-0.4
			c3.1-0.2,5.3-0.2,6.5-0.1c0.6,0,1.1,0.1,1.5,0.1C28.5,99.6,28.9,99.2,28.8,98.5z"/>
		<path d="M44.1,103.7c-0.1-0.7-0.5-1.2-1.2-1.7c-1-0.7-2.5-0.9-4.1-0.5c-0.5,0.1-1.1,0.4-1.7,0.7c-0.6,0.3-1.3,0.8-2,1.5
			c-0.7,0.6-1.3,1.3-1.9,2c-0.5,0.6-1,1.4-1.6,2.4c0-1.3,0-1.9,0.1-2c0.1-0.3,0.1-0.6,0.1-0.9c0-0.1,0.1-0.5,0.3-1.2
			c0.2-0.6,0.3-1.1,0.2-1.4c0-0.3-0.2-0.6-0.5-0.8c-0.6-0.5-1.7-0.5-2.5,0c-0.4,0.2-0.6,0.5-0.8,0.8c-0.1,0.3-0.2,0.7-0.2,1.4
			c0,0.5,0,0.9-0.1,1c-0.1,0.9-0.1,2.1-0.1,3.6c0.1,1.3,0.1,2.1,0.1,2.4c0.1,1.4,0.3,2.4,0.6,3c0.4,0.9,1.1,1.1,1.6,1.1
			c0.6,0,1.1-0.1,1.4-0.3c0.4-0.3,0.6-0.7,0.6-1.4c0.2-2.3,1.2-4.4,3-6.3c1.8-1.9,3.2-2.9,4.2-2.9c0.4,0,0.7,0.1,1,0.4
			c0.9,0.7,2.2,0.6,2.7,0.1C44,104.4,44.2,104.1,44.1,103.7z"/>
		<path d="M60.7,112.5c-0.9-0.3-1.4-1.4-1.5-3.1c-0.1-0.9,0.1-2.5,0.5-4.8c0.1-0.5,0.1-0.8,0.1-1.1c0-0.5-0.4-1.1-1.7-1.1
			c-0.2,0-0.3-0.1-0.4-0.2c-0.6-0.9-1.4-1.3-2.4-1.3c-2.6,0-5.1,1.2-7.5,3.7c-2.4,2.4-3.5,4.8-3.3,6.9c0.1,0.9,0.5,1.7,1.2,2.2
			c0.7,0.6,1.5,0.8,2.5,0.8c1.3,0,2.7-0.4,4.1-1.1c1.3-0.7,2.5-1.6,3.8-2.8c0.2,1.2,0.6,2.2,1.1,3c0.7,0.9,1.5,1.4,2.5,1.4
			c0.5,0,1-0.1,1.5-0.4c0.6-0.3,0.8-0.7,0.8-1C61.7,113.1,61.4,112.7,60.7,112.5z M54.6,103.6c0.8,0,1.2,0.4,1.3,1.3
			c0.1,1.3-0.8,2.9-2.7,4.5c-1.9,1.7-3.4,2.5-4.5,2.5c-0.6,0-0.9-0.3-1-1c-0.1-1.2,0.7-2.7,2.4-4.6
			C51.8,104.5,53.3,103.6,54.6,103.6z"/>
		<path d="M83.8,110.9c-0.1,0-0.2,0-0.3,0.1c-1.1,0.4-1.7,0.3-2-0.3c-0.2-0.3-0.5-1.2-1.1-3.5c-0.5-1.8-1-3-1.8-3.7
			c-0.7-0.7-1.7-1.1-2.7-1.1c-1.3,0-2.5,0.4-3.5,1.2c-1,0.8-2.1,2.2-3.3,4.1c-0.8,1.2-1.2,1.9-1.5,2.2c0-0.2,0.1-0.5,0.1-0.9
			c0.4-2.5,0.6-4.1,0.6-5c-0.1-0.9-0.3-1.4-0.6-1.8c-0.3-0.3-0.8-0.5-1.5-0.5c-0.4,0-0.8,0.2-1.2,0.6c-0.4,0.4-0.6,0.8-0.5,1.2
			c0.2,2.6,0.1,5.1-0.2,7.4c-0.1,0.7-0.2,1.3-0.1,1.7c0.1,0.8,0.5,1.7,2.4,1.7c0.4,0,0.9-0.2,1.4-0.6c0.3-0.2,1-0.9,3.2-4.3
			c1.2-1.8,2.1-3,2.7-3.5c0.6-0.5,1.1-0.7,1.6-0.7c1,0,1.5,1.7,1.9,3.1c0.5,2.4,1.1,3.8,1.7,4.4c0.6,0.6,1.5,0.9,2.5,0.9
			c1,0,1.8-0.2,2.4-0.6c0.7-0.5,1-0.9,1-1.4C84.9,111.3,84.5,110.9,83.8,110.9z"/>
		<path d="M91.7,103.9c2-0.7,2.8-0.8,3.1-0.8c0,0,0.1,0,0.6,0.1c0.5,0.2,0.7,0.2,0.8,0.2c0.2,0,0.5-0.1,0.8-0.3
			c0.5-0.3,0.5-0.7,0.5-0.9c-0.1-0.8-0.5-1.2-0.9-1.4c-0.5-0.2-1.2-0.4-2.1-0.4c-1.4,0-3.2,0.5-5.3,1.6c-2.2,1.1-3.2,2.5-3.1,4.2
			c0.1,0.7,0.6,1.4,1.5,1.9c0.8,0.5,2.4,1.2,4.7,2c1.9,0.7,2.3,1.1,2.5,1.3c-0.2,0.2-0.8,0.6-2.2,0.8c-1.3,0.3-2.6,0.4-3.8,0.4
			c-0.1,0-0.3,0-0.8-0.1c-0.5-0.1-0.8-0.1-1-0.1c-0.4,0-0.9,0.1-1.3,0.2c-0.7,0.2-0.8,0.7-0.7,1c0.1,1.1,1.1,1.6,3.1,1.6
			c2.1,0,4.3-0.3,6.6-1c2.4-0.7,3.5-1.8,3.4-3.1c-0.1-0.8-0.5-1.4-1.4-2c-0.8-0.5-1.9-1-3.1-1.4c-1.5-0.5-2.6-0.9-3.2-1.3
			c-0.5-0.3-0.8-0.6-0.8-0.9C89.5,104.9,90.3,104.4,91.7,103.9z"/>
		<path d="M110.8,102.5c-0.5,0-2.2,0-5,0c-0.1,0-0.6,0-0.7-0.2c-0.1-1.1,0.2-2.5,0.9-4.2c0.6-1.7,1.5-2.5,2.6-2.5
			c0.7,0,1.4,0.2,1.6,1.9l0,1.2c0,0.2,0.1,0.7,0.9,0.7c0.6,0,1.1-0.4,1.5-1.3c0.3-0.8,0.5-1.5,0.4-2.1c-0.1-0.8-0.5-1.5-1.3-2
			c-0.8-0.5-1.7-0.8-2.7-0.8c-1.9,0-3.5,0.6-4.6,1.7c-1.1,1.1-1.9,2.9-2.2,5.4c-0.1,0.6-0.2,1.2-0.3,1.5c-0.1,0.3-0.3,0.6-0.8,0.8
			c-0.8,0.5-1.2,0.9-1.1,1.4c0,0.5,0.6,0.8,1,1c0.3,0.2,0.5,0.3,0.5,0.3c0.1,0.8,0,2-0.2,3.5c-0.3,2.6-0.4,4.2-0.4,4.8
			c0.1,1.3,0.9,2.1,2.2,2.1c0.4,0,0.8-0.1,1.1-0.2c0.4-0.2,0.7-0.4,0.8-0.7l0-0.1c0-0.1,0-0.2-0.2-0.7c-0.1-0.3-0.2-0.8-0.2-1.4
			c-0.2-2.2-0.1-4.7,0.4-7.5c0.3,0,0.9-0.1,2.4-0.2c1.9-0.1,3.1-0.3,3.6-0.5c0.7-0.2,1-0.6,1-1.1c0-0.3-0.2-0.4-0.3-0.5
			C111.6,102.6,111.3,102.5,110.8,102.5z"/>
		<path d="M126.9,109.2c-0.3,0-0.6,0.1-1,0.5c-2.2,1.8-4.5,2.7-6.7,2.7c-0.9,0-1.7-0.2-2.2-0.5c-0.5-0.3-0.7-0.7-0.8-1.3
			c0-0.2,0.4-0.4,0.6-0.5c2.7-1.1,4.8-2.2,6.4-3.3c1.6-1.2,2.4-2.4,2.3-3.7c-0.1-0.7-0.4-1.2-1.1-1.7c-0.6-0.4-1.4-0.6-2.3-0.6
			c-2.6,0-4.9,1.1-6.8,3.1c-2,2.1-2.9,4.3-2.7,6.6c0.1,1.4,0.7,2.6,1.9,3.4c1.1,0.8,2.5,1.2,4.4,1.2c2.1,0,4.2-0.6,6.1-1.7
			c2-1.2,2.9-2.2,2.8-3.2C127.8,109.5,127.4,109.2,126.9,109.2z M118.6,104.7c1.1-1,2.1-1.5,3-1.5c0.5,0,0.6,0.2,0.6,0.4
			c0,0.6-0.6,1.8-5.6,4.1C117,106.5,117.6,105.5,118.6,104.7z"/>
		<path d="M145.6,102c-1-0.7-2.5-0.9-4.1-0.5c-0.5,0.1-1.1,0.4-1.7,0.7c-0.6,0.3-1.3,0.8-2,1.5c-0.7,0.6-1.3,1.3-1.9,2
			c-0.5,0.6-1,1.4-1.6,2.4c0-1.3,0-1.8,0.1-2c0.1-0.3,0.1-0.6,0.1-0.9c0-0.1,0.1-0.5,0.3-1.2c0.2-0.6,0.3-1.1,0.2-1.4
			c0-0.3-0.2-0.6-0.5-0.8c-0.6-0.5-1.7-0.5-2.5,0c-0.4,0.2-0.6,0.5-0.8,0.8c-0.1,0.3-0.2,0.7-0.2,1.4c0,0.5,0,0.9-0.1,1
			c-0.1,0.9-0.1,2.1-0.1,3.6c0.1,1.3,0.1,2.1,0.1,2.4c0.1,1.4,0.3,2.4,0.6,3c0.4,0.9,1.1,1.1,1.6,1.1c0.6,0,1.1-0.1,1.4-0.3
			c0.4-0.3,0.6-0.7,0.6-1.4c0.2-2.3,1.2-4.4,3-6.3c1.8-1.9,3.2-2.9,4.2-2.9c0.4,0,0.7,0.1,1,0.4c0.5,0.3,1,0.5,1.5,0.5
			c0.5,0,0.9-0.1,1.2-0.4c0.3-0.3,0.4-0.6,0.3-0.9C146.8,103.1,146.4,102.5,145.6,102z"/>
	</g>
</g>
</svg>
